<?xml version="1.0" encoding="utf-8"?>
<!-- Generator: Adobe Illustrator 16.0.0, SVG Export Plug-In . SVG Version: 6.00 Build 0)  -->
<!DOCTYPE svg PUBLIC "-//W3C//DTD SVG 1.1//EN" "http://www.w3.org/Graphics/SVG/1.1/DTD/svg11.dtd">
<svg version="1.1" id="Layer_1" xmlns="http://www.w3.org/2000/svg" xmlns:xlink="http://www.w3.org/1999/xlink" x="0px" y="0px"
	 width="500px" height="500px" viewBox="0 0 500 500" enable-background="new 0 0 500 500" xml:space="preserve">
<g>
	<path fill="#2D6393" d="M39.743,242.494l138.531,138.533l94.785-94.786l-79.431-79.431l37.742-37.739l79.433,79.427
		l129.951-129.953l38.223,38.224C442.064,66.39,353.299,2.698,249.642,2.698C112.874,2.698,2,113.569,2,250.34
		c0,9.566,0.561,18.999,1.616,28.28L39.743,242.494z"/>
	<path fill="#2D6393" d="M481.605,163.475L183.422,461.654L4.046,282.283c15.671,121.68,119.653,215.7,245.596,215.7
		c136.77,0,247.643-110.874,247.643-247.644C497.285,219.773,491.732,190.505,481.605,163.475z"/>
</g>
</svg>
