<?xml version="1.0" standalone="no"?>
<!DOCTYPE svg PUBLIC "-//W3C//DTD SVG 20010904//EN"
 "http://www.w3.org/TR/2001/REC-SVG-20010904/DTD/svg10.dtd">
<svg version="1.0" xmlns="http://www.w3.org/2000/svg"
 width="496.000000pt" height="496.000000pt" viewBox="0 0 496.000000 496.000000"
 preserveAspectRatio="xMidYMid meet">
<metadata>
Created by potrace 1.11, written by Peter Selinger 2001-2013
</metadata>
<g transform="translate(0.000000,496.000000) scale(0.100000,-0.100000)"
fill="#000000" stroke="none">
<path d="M2240 4944 c-478 -57 -891 -217 -1237 -478 -551 -416 -888 -989 -985
-1676 -14 -103 -19 -573 -5 -586 4 -5 88 72 187 171 l178 178 693 -692 693
-692 474 474 474 474 -398 397 -398 397 184 184 c102 102 189 185 195 185 5 0
187 -177 402 -392 l393 -393 650 650 651 650 173 -175 c95 -96 180 -181 190
-189 11 -10 5 12 -19 65 -57 124 -110 218 -200 354 -344 515 -861 881 -1455
1029 -203 50 -314 63 -565 66 -132 2 -256 1 -275 -1z"/>
<path d="M3303 1858 c-818 -819 -1490 -1488 -1492 -1488 -2 0 -404 401 -894
890 -489 490 -891 889 -893 888 -5 -6 28 -187 51 -278 172 -677 628 -1258
1245 -1584 648 -342 1420 -379 2100 -99 845 348 1429 1134 1521 2047 17 170 7
488 -20 641 -31 177 -91 401 -120 453 -8 14 -244 -217 -1498 -1470z"/>
</g>
</svg>
